<?xml version="1.0" encoding="UTF-8" standalone="no"?>
<svg
   width="1376px"
   height="723px"
   style="position: absolute; top: 0px; left: 0px; width: 1376px; height: 723px;"
   viewBox="26.666666666666686 135.5 458.66666666666663 241"
   class="css-np3qrs"
   version="1.1"
   id="svg169"
   sodipodi:docname="chart1.svg"
   inkscape:version="1.1.2 (0a00cf5339, 2022-02-04)"
   xmlns:inkscape="http://www.inkscape.org/namespaces/inkscape"
   xmlns:sodipodi="http://sodipodi.sourceforge.net/DTD/sodipodi-0.dtd"
   xmlns="http://www.w3.org/2000/svg"
   xmlns:svg="http://www.w3.org/2000/svg">
  <sodipodi:namedview
     id="namedview171"
     pagecolor="#ffffff"
     bordercolor="#666666"
     borderopacity="1.0"
     inkscape:pageshadow="2"
     inkscape:pageopacity="0.0"
     inkscape:pagecheckerboard="0"
     showgrid="false"
     inkscape:zoom="0.39187386"
     inkscape:cx="687.72131"
     inkscape:cy="327.91164"
     inkscape:window-width="1846"
     inkscape:window-height="1016"
     inkscape:window-x="0"
     inkscape:window-y="0"
     inkscape:window-maximized="1"
     inkscape:current-layer="svg169" />
  <style
     id="style133">#editor_f1malmd00_1 ._sw1{stroke-width:0.3333333333333333}#editor_f1malmd00_1 ._sw2{stroke-width:0.6666666666666666}#editor_f1malmd00_1 ._sd{stroke-dasharray:3.333 1.667}</style>
  <defs
     id="defs146">
    <pattern
       id="o_f1malmd00_2"
       x="0"
       y="0"
       width="10.666666666666666"
       height="10.666666666666666"
       patternUnits="userSpaceOnUse"
       class="css-1e1xezv">
      <rect
         x="0"
         y="0"
         width="10.666666666666666"
         height="10.666666666666666"
         id="rect135" />
      <circle
         cx="0"
         cy="0"
         r="0.5"
         id="circle137" />
      <circle
         cx="10.666666666666666"
         cy="0"
         r="0.5"
         id="circle139" />
      <circle
         cx="10.666666666666666"
         cy="10.666666666666666"
         r="0.5"
         id="circle141" />
      <circle
         cx="0"
         cy="10.666666666666666"
         r="0.5"
         id="circle143" />
    </pattern>
  </defs>
  <svg
     width="512"
     height="512"
     style="overflow: visible;"
     viewBox="0 0 512 512"
     data-svgdocument=""
     id="_HudbHJ6wF2nyML3kkGM-z"
     class="fl-svgdocument"
     x="0"
     y="0"
     overflow="hidden"
     data-bbox="155.54309461615503 138.684979874718 205.01806081740142 235.59195267576206"
     version="1.1">
    <defs
       id="_9t0XWI8cwjcNaVxEp2uGC"
       transform="matrix(0.4738275706768036, 0, 0, 0.4738275706768036, 23.266321182250977, 112.52013397216797)"
       data-uid="o_f1malmd00_5">
      <linearGradient
         id="o_f1malmd00_3"
         x1="0"
         y1="0.5"
         x2="1"
         y2="0.5"
         data-uid="o_f1malmd00_6">
        <stop
           id="_V1PrPVdZ6YGiGD7aYgpxp"
           offset="0%"
           stop-color="rgb(100, 163, 227)"
           data-uid="o_f1malmd00_7" />
        <stop
           id="_nxM48LmnPnki_F3oM6fhC"
           offset="100%"
           stop-color="rgb(1, 35, 63)"
           data-uid="o_f1malmd00_8" />
      </linearGradient>
    </defs>
    <path
       text="Plotting"
       text-anchor="middle"
       font-size="100"
       letter-spacing="0"
       side="left"
       offset="0.5"
       dx="0"
       dy="0"
       space="preserve"
       href=""
       font-family="Source Sans Pro"
       font-scale="contain"
       transform="matrix(0.6412826180458069, 0, 0, 0.6412826180458069, 255.55111694335938, 359.9122009277344)"
       x="0"
       y="0"
       fill="#01233f"
       data-fl-textpath=""
       id="_-9Nd6DUApBBo8voGzhXFR"
       data-uid="o_f1malmd00_9"
       d="M-147.65000000000003 0L-155.95000000000005 0L-155.95000000000005-65.6L-137.25000000000006-65.6Q-131.75000000000006-65.6 -127.20000000000005-64.6Q-122.65000000000005-63.6 -119.45000000000005-61.35Q-116.25000000000004-59.1 -114.45000000000005-55.4Q-112.65000000000005-51.7 -112.65000000000005-46.3L-112.65000000000005-46.3Q-112.65000000000005-41.1 -114.40000000000005-37.3Q-116.15000000000005-33.5 -119.35000000000005-31Q-122.55000000000004-28.5 -127.00000000000004-27.25Q-131.45000000000005-26 -136.85000000000005-26L-136.85000000000005-26L-147.65000000000003-26L-147.65000000000003 0ZM-147.65000000000003-58.9L-147.65000000000003-32.8L-137.85000000000005-32.8Q-129.25000000000006-32.8 -125.10000000000005-36.05Q-120.95000000000005-39.3 -120.95000000000005-46.3L-120.95000000000005-46.3Q-120.95000000000005-53.4 -125.30000000000004-56.15Q-129.65000000000003-58.9 -138.25000000000006-58.9L-138.25000000000006-58.9L-147.65000000000003-58.9ZM-91.45000000000005 1.2L-91.45000000000005 1.2Q-96.15000000000005 1.2 -98.15000000000005-1.6Q-100.15000000000005-4.4 -100.15000000000005-9.8L-100.15000000000005-9.8L-100.15000000000005-71.2L-91.95000000000005-71.2L-91.95000000000005-9.2Q-91.95000000000005-7.2 -91.25000000000006-6.4Q-90.55000000000005-5.6 -89.65000000000005-5.6L-89.65000000000005-5.6Q-89.25000000000006-5.6 -88.90000000000005-5.6Q-88.55000000000005-5.6 -87.85000000000005-5.8L-87.85000000000005-5.8L-86.75000000000006 0.4Q-87.55000000000005 0.8 -88.65000000000005 1Q-89.75000000000006 1.2 -91.45000000000005 1.2ZM-55.75000000000005 1.2L-55.75000000000005 1.2Q-60.25000000000005 1.2 -64.30000000000005-0.5Q-68.35000000000005-2.2 -71.45000000000005-5.45Q-74.55000000000005-8.7 -76.40000000000005-13.45Q-78.25000000000006-18.2 -78.25000000000006-24.2L-78.25000000000006-24.2Q-78.25000000000006-30.3 -76.40000000000005-35.05Q-74.55000000000005-39.8 -71.45000000000005-43.1Q-68.35000000000005-46.4 -64.30000000000005-48.1Q-60.25000000000005-49.8 -55.75000000000005-49.8L-55.75000000000005-49.8Q-51.25000000000005-49.8 -47.20000000000005-48.1Q-43.15000000000005-46.4 -40.050000000000054-43.1Q-36.95000000000005-39.8 -35.10000000000005-35.05Q-33.25000000000005-30.3 -33.25000000000005-24.2L-33.25000000000005-24.2Q-33.25000000000005-18.2 -35.10000000000005-13.45Q-36.95000000000005-8.7 -40.050000000000054-5.45Q-43.15000000000005-2.2 -47.20000000000005-0.5Q-51.25000000000005 1.2 -55.75000000000005 1.2ZM-55.75000000000005-5.6L-55.75000000000005-5.6Q-52.65000000000005-5.6 -50.050000000000054-6.95Q-47.45000000000005-8.3 -45.60000000000005-10.75Q-43.75000000000005-13.2 -42.75000000000005-16.6Q-41.75000000000005-20 -41.75000000000005-24.2L-41.75000000000005-24.2Q-41.75000000000005-28.4 -42.75000000000005-31.85Q-43.75000000000005-35.3 -45.60000000000005-37.8Q-47.45000000000005-40.3 -50.050000000000054-41.65Q-52.65000000000005-43 -55.75000000000005-43L-55.75000000000005-43Q-58.85000000000005-43 -61.45000000000005-41.65Q-64.05000000000005-40.3 -65.90000000000005-37.8Q-67.75000000000006-35.3 -68.75000000000006-31.85Q-69.75000000000006-28.4 -69.75000000000006-24.2L-69.75000000000006-24.2Q-69.75000000000006-20 -68.75000000000006-16.6Q-67.75000000000006-13.2 -65.90000000000005-10.75Q-64.05000000000005-8.3 -61.45000000000005-6.95Q-58.85000000000005-5.6 -55.75000000000005-5.6ZM-6.850000000000051 1.2L-6.850000000000051 1.2Q-10.75000000000005 1.2 -13.400000000000052 0Q-16.05000000000005-1.2 -17.700000000000053-3.3Q-19.35000000000005-5.4 -20.05000000000005-8.4Q-20.75000000000005-11.4 -20.75000000000005-15L-20.75000000000005-15L-20.75000000000005-41.9L-27.950000000000053-41.9L-27.950000000000053-48.1L-20.35000000000005-48.6L-19.35000000000005-62.2L-12.450000000000053-62.2L-12.450000000000053-48.6L 0.6499999999999488-48.6L 0.6499999999999488-41.9L-12.450000000000053-41.9L-12.450000000000053-14.9Q-12.450000000000053-10.4 -10.80000000000005-7.95Q-9.150000000000052-5.5 -4.950000000000053-5.5L-4.950000000000053-5.5Q-3.650000000000052-5.5 -2.150000000000052-5.9Q-0.6500000000000519-6.3  0.5499999999999474-6.8L 0.5499999999999474-6.8L 2.149999999999949-0.6Q 0.14999999999994884 0.1 -2.2000000000000526 0.65Q-4.5500000000000504 1.2 -6.850000000000051 1.2ZM 24.949999999999953 1.2L 24.949999999999953 1.2Q 21.049999999999955 1.2  18.399999999999952 0Q 15.749999999999954-1.2  14.099999999999953-3.3Q 12.449999999999953-5.4  11.749999999999954-8.4Q 11.049999999999953-11.4  11.049999999999953-15L 11.049999999999953-15L 11.049999999999953-41.9L 3.849999999999953-41.9L 3.849999999999953-48.1L 11.449999999999953-48.6L 12.449999999999953-62.2L 19.34999999999995-62.2L 19.34999999999995-48.6L 32.44999999999995-48.6L 32.44999999999995-41.9L 19.34999999999995-41.9L 19.34999999999995-14.9Q 19.34999999999995-10.4  20.999999999999954-7.95Q 22.649999999999952-5.5  26.84999999999995-5.5L 26.84999999999995-5.5Q 28.149999999999952-5.5  29.649999999999952-5.9Q 31.149999999999952-6.3  32.34999999999995-6.8L 32.34999999999995-6.8L 33.94999999999995-0.6Q 31.949999999999953 0.1  29.59999999999995 0.65Q 27.249999999999954 1.2  24.949999999999953 1.2ZM 51.649999999999956 0L 43.44999999999996 0L 43.44999999999996-48.6L 51.649999999999956-48.6L 51.649999999999956 0ZM 47.649999999999956-58.6L 47.649999999999956-58.6Q 45.24999999999996-58.6  43.59999999999996-60.1Q 41.94999999999996-61.6  41.94999999999996-63.9L 41.94999999999996-63.9Q 41.94999999999996-66.3  43.59999999999996-67.75Q 45.24999999999996-69.2  47.649999999999956-69.2L 47.649999999999956-69.2Q 50.049999999999955-69.2  51.69999999999996-67.75Q 53.34999999999996-66.3  53.34999999999996-63.9L 53.34999999999996-63.9Q 53.34999999999996-61.6  51.69999999999996-60.1Q 50.049999999999955-58.6  47.649999999999956-58.6ZM 76.24999999999996 0L 68.04999999999995 0L 68.04999999999995-48.6L 74.84999999999997-48.6L 75.54999999999995-41.6L 75.84999999999997-41.6Q 79.34999999999997-45.1  83.19999999999996-47.45Q 87.04999999999995-49.8  92.14999999999995-49.8L 92.14999999999995-49.8Q 99.84999999999997-49.8  103.39999999999995-45Q 106.94999999999996-40.2  106.94999999999996-30.8L 106.94999999999996-30.8L 106.94999999999996 0L 98.74999999999996 0L 98.74999999999996-29.7Q 98.74999999999996-36.6  96.54999999999995-39.65Q 94.34999999999997-42.7  89.54999999999995-42.7L 89.54999999999995-42.7Q 85.74999999999996-42.7  82.84999999999997-40.8Q 79.94999999999996-38.9  76.24999999999996-35.2L 76.24999999999996-35.2L 76.24999999999996 0ZM 139.14999999999995 22.4L 139.14999999999995 22.4Q 134.64999999999995 22.4  130.94999999999993 21.55Q 127.24999999999994 20.7  124.59999999999994 19Q 121.94999999999995 17.3  120.49999999999994 14.9Q 119.04999999999994 12.5  119.04999999999994 9.3L 119.04999999999994 9.3Q 119.04999999999994 6.2  120.94999999999995 3.4Q 122.84999999999994 0.6  126.14999999999993-1.7L 126.14999999999993-1.7L 126.14999999999993-2.1Q 124.34999999999994-3.2  123.09999999999994-5.15Q 121.84999999999994-7.1  121.84999999999994-10L 121.84999999999994-10Q 121.84999999999994-13.1  123.54999999999994-15.4Q 125.24999999999994-17.7  127.14999999999993-19L 127.14999999999993-19L 127.14999999999993-19.4Q 124.74999999999994-21.4  122.79999999999994-24.75Q 120.84999999999994-28.1  120.84999999999994-32.5L 120.84999999999994-32.5Q 120.84999999999994-36.5  122.29999999999994-39.7Q 123.74999999999994-42.9  126.24999999999994-45.15Q 128.74999999999994-47.4  132.09999999999994-48.6Q 135.44999999999993-49.8  139.14999999999995-49.8L 139.14999999999995-49.8Q 141.14999999999995-49.8  142.89999999999995-49.45Q 144.64999999999995-49.1  146.04999999999995-48.6L 146.04999999999995-48.6L 162.94999999999993-48.6L 162.94999999999993-42.3L 152.94999999999993-42.3Q 154.64999999999995-40.6  155.79999999999995-38Q 156.94999999999993-35.4  156.94999999999993-32.3L 156.94999999999993-32.3Q 156.94999999999993-28.4  155.54999999999995-25.25Q 154.14999999999995-22.1  151.74999999999994-19.95Q 149.34999999999994-17.8  146.09999999999994-16.6Q 142.84999999999994-15.4  139.14999999999995-15.4L 139.14999999999995-15.4Q 137.34999999999994-15.4  135.44999999999993-15.85Q 133.54999999999995-16.3  131.84999999999994-17.1L 131.84999999999994-17.1Q 130.54999999999995-16  129.64999999999995-14.65Q 128.74999999999994-13.3  128.74999999999994-11.3L 128.74999999999994-11.3Q 128.74999999999994-9  130.54999999999995-7.5Q 132.34999999999994-6  137.34999999999994-6L 137.34999999999994-6L 146.74999999999994-6Q 155.24999999999994-6  159.49999999999994-3.25Q 163.74999999999994-0.5  163.74999999999994 5.6L 163.74999999999994 5.6Q 163.74999999999994 9  162.04999999999995 12.05Q 160.34999999999994 15.1  157.14999999999995 17.4Q 153.94999999999993 19.7  149.39999999999995 21.05Q 144.84999999999994 22.4  139.14999999999995 22.4ZM 139.14999999999995-20.9L 139.14999999999995-20.9Q 141.24999999999994-20.9  143.09999999999994-21.7Q 144.94999999999993-22.5  146.39999999999995-24Q 147.84999999999994-25.5  148.64999999999995-27.65Q 149.44999999999993-29.8  149.44999999999993-32.5L 149.44999999999993-32.5Q 149.44999999999993-37.9  146.44999999999993-40.85Q 143.44999999999993-43.8  139.14999999999995-43.8L 139.14999999999995-43.8Q 134.84999999999994-43.8  131.84999999999994-40.85Q 128.84999999999994-37.9  128.84999999999994-32.5L 128.84999999999994-32.5Q 128.84999999999994-29.8  129.64999999999995-27.65Q 130.44999999999993-25.5  131.89999999999995-24Q 133.34999999999994-22.5  135.19999999999993-21.7Q 137.04999999999995-20.9  139.14999999999995-20.9ZM 140.34999999999994 16.7L 140.34999999999994 16.7Q 143.84999999999994 16.7  146.69999999999993 15.85Q 149.54999999999995 15  151.54999999999995 13.65Q 153.54999999999995 12.3  154.64999999999995 10.5Q 155.74999999999994 8.7  155.74999999999994 6.8L 155.74999999999994 6.8Q 155.74999999999994 3.4  153.24999999999994 2.1Q 150.74999999999994 0.8  145.94999999999993 0.8L 145.94999999999993 0.8L 137.54999999999995 0.8Q 136.14999999999995 0.8  134.49999999999994 0.65Q 132.84999999999994 0.5  131.24999999999994 0L 131.24999999999994 0Q 128.64999999999995 1.9  127.44999999999995 4Q 126.24999999999994 6.1  126.24999999999994 8.2L 126.24999999999994 8.2Q 126.24999999999994 12.1  129.99999999999994 14.4Q 133.74999999999994 16.7  140.34999999999994 16.7Z" />
    <g
       id="_ZUYj3coBoS5ICQ-LK7LQZ"
       transform="matrix(0.8918588757514954, 0, 0, 0.8918588757514954, 24.320175170898438, 21.81715965270996)"
       data-uid="o_f1malmd00_10">
      <path
         id="_UcB7u_rDgil8f9GPeAstx"
         fill-rule="evenodd"
         clip-rule="evenodd"
         d="M47.12 0c1.929 0 3.858 0 5.787 0c5.542 0.464 10.407 1.606 14.88 3.141   c-5.255 2.776-9.117 7.298-13.227 11.408c-3.974 3.973-8.248 7.921-12.565 12.069c-6.059 5.821-12.742 11.75-19.013 18.021   c-3.702 3.703-9.781 8.245-6.448 15.872c1.142 2.614 3.96 4.952 6.117 7.109c4.643 4.643 8.292 8.708 12.896 13.557   c2.017 2.125 4.463 5.258 6.779 6.449c7.161 3.681 11.915-1.474 15.873-5.127C72.06 69.708 85.926 54.978 99.53 42.986   c2.244 17.444-3.859 30.562-11.739 39.68c-8.028 9.292-19.262 16.104-34.885 17.36c-1.929 0-3.858 0-5.787 0   c-14.028-1.233-24.837-6.816-32.57-14.55S1.226 66.945 0 52.906c0-1.929 0-3.858 0-5.787c0.813-13.524 7.185-25.111 14.714-32.57   C22.69 6.647 33.34 1.089 47.12 0z"
         fill="url(#o_f1malmd00_3)"
         transform="matrix(1.8011828660964966, 0, 0, 1.8011828660964966, 169.7128448486328, 131.03846740722656)"
         data-uid="o_f1malmd00_11" />
      <path
         id="_6rELSIqePQC6SL5biM278"
         fill-rule="evenodd"
         clip-rule="evenodd"
         d="M69.77 8.267c4.296-0.852 7.315 4.022 9.425 6.283   c4.568 4.897 7.879 8.211 12.896 13.226c1.747 1.749 5.308 4.417 5.126 7.936c-0.15 2.898-3.55 5.291-5.292 6.944   C79.189 54.743 67.619 66.479 54.56 78.532c-2.077 1.916-4.137 4.981-7.274 4.961c-3.423-0.022-5.637-3.705-7.606-5.787   c-4.378-4.631-8.417-8.748-13.061-13.393c-2.03-2.028-5.802-4.944-5.622-8.431c0.131-2.536 3.708-5.527 5.125-6.944   c5.793-5.793 12.45-12.079 18.352-17.525c7.039-6.497 14.274-13.435 21.492-20.501C67.216 9.69 67.915 8.634 69.77 8.267z    M64.479 17.69c-3.162 2.951-6.117 5.729-9.093 8.432c-1.546 1.403-3.341 3.249-3.473 5.291c-0.182 2.842 2.271 4.939 3.968 6.778   c3.601 3.902 6.933 7.115 10.582 10.912c1.945 2.025 3.687 4.376 6.447 4.299c2.418-0.067 3.871-2.186 5.456-3.637   c3.711-3.397 5.866-5.479 9.424-8.763c1.296-1.195 3.538-3.074 3.638-5.456c0.134-3.201-2.299-4.779-4.133-6.613   c-4.361-4.36-6.438-6.708-10.417-11.077c-1.605-1.763-4.149-4.403-7.109-3.968C67.046 14.288 65.977 16.294 64.479 17.69z    M41.167 40.672c0.073 1.151 1.686 2.15 2.479 2.975c0.559 0.58 1.838 2.521 2.977 2.48c1.245-0.045 5.331-4.276 5.291-5.456   c-0.049-1.457-4.615-5.465-5.621-5.292C45.33 35.547 41.1 39.619 41.167 40.672z M33.066 48.277c0 1.186 4.457 5.483 5.456 5.456   c1.422-0.039 5.331-3.912 5.29-5.29c-0.039-1.347-4.47-5.512-5.621-5.291C37.043 43.372 33.066 47.444 33.066 48.277z M49.6 49.434   c0.031 1.186 1.796 2.292 2.479 2.976c0.723 0.723 1.684 2.486 2.977 2.479c1.247-0.005 5.303-4.206 5.29-5.29   c-0.007-0.713-1.44-2.267-2.314-3.142c-1.176-1.176-2.194-2.551-3.637-2.149C53.511 44.555 49.577 48.54 49.6 49.434z    M24.965 55.883c-0.07 1.189 1.69 2.517 2.314 3.141c0.882 0.883 1.979 2.482 3.142 2.479c1.313-0.003 2.074-1.413 2.976-2.314   c0.614-0.613 2.522-1.818 2.48-2.976c-0.025-0.703-1.829-2.3-2.48-2.977c-1.074-1.114-1.971-2.579-3.307-2.314   C29.044 51.129 25.004 55.224 24.965 55.883z M41.499 57.205c0.046 1.178 4.565 5.523 5.621 5.456   c0.776-0.05 2.071-1.575 2.811-2.315c0.618-0.617 2.409-1.873 2.479-2.811c0.061-0.804-1.357-2.165-2.314-3.141   c-1.296-1.322-2.131-2.632-3.307-2.48C45.645 52.062 41.465 56.336 41.499 57.205z M62.661 53.236   c-1.126 1.043-4.642 3.306-4.63 4.961c0.009 1.204 1.724 2.219 2.48 2.976c0.768 0.768 1.676 2.48 2.976 2.48   c1.307 0 5.325-4.105 5.291-5.291c-0.02-0.671-1.441-2.217-2.314-3.142c-1.082-1.144-2.188-2.482-3.473-2.148   C62.781 53.126 62.786 53.121 62.661 53.236z M33.562 64.976c0.036 1.137 4.236 5.399 5.125 5.456   c1.213 0.076 2.282-1.456 3.142-2.314c0.543-0.543 2.476-1.984 2.479-2.977c0.002-0.741-1.423-2.006-2.315-2.976   c-1.231-1.34-2.031-2.652-3.306-2.479C37.295 59.872 33.529 63.913 33.562 64.976z M54.56 61.008   c-1.271 1.15-4.683 3.447-4.629 4.959c0.032 0.904 1.655 2.097 2.479 2.977c1.018 1.085 1.823 2.567 3.142 2.479   c1.096-0.071 2.069-1.807 2.811-2.479c0.636-0.577 2.486-1.508 2.48-2.811c-0.005-0.865-1.64-2.136-2.48-2.977   c-1.244-1.243-1.941-2.732-3.473-2.313C54.68 60.9 54.687 60.894 54.56 61.008z M46.458 68.778   c-1.366 1.236-4.513 3.275-4.464 4.96c0.039 1.316 4.292 5.527 5.456 5.456c0.935-0.058 2.34-1.738 2.976-2.315   c0.687-0.624 2.318-2.069 2.315-2.976c-0.003-0.967-1.629-2.04-2.48-2.976c-1.252-1.375-1.84-2.768-3.472-2.315   C46.579 68.672 46.585 68.663 46.458 68.778z"
         fill="#01233f"
         transform="matrix(1.8011828660964966, 0, 0, 1.8011828660964966, 169.02279663085938, 131.30795288085938)"
         data-uid="o_f1malmd00_12" />
    </g>
  </svg>
</svg>
