<svg width="24" height="24" viewBox="0 0 24 24" fill="none" xmlns="http://www.w3.org/2000/svg">
<path d="M19 20V5.99996C19 3.79647 19 4 17 3.9999C15 3.99998 9.28877 3.99996 7 4.00001C5 4.00001 5 3.99996 5 5.99996V20C5 21.3363 5.5 22 7 22L9.5 22.0001C11.5 22.0001 13.5 22.0001 14 22.0001L17 22C18.5 22 19 21.3363 19 20Z" stroke="#363853" stroke-width="1.5" stroke-linecap="round" stroke-linejoin="round"/>
<path d="M8 7H16" stroke="#363853" stroke-width="1.5" stroke-linecap="round"/>
<path d="M8 9H16" stroke="#363853" stroke-width="1.5" stroke-linecap="round"/>
<path d="M7 12H9" stroke="#363853" stroke-width="1.5" stroke-linecap="round"/>
<path d="M11 12H13" stroke="#363853" stroke-width="1.5" stroke-linecap="round"/>
<path d="M15 12H17" stroke="#363853" stroke-width="1.5" stroke-linecap="round"/>
<path d="M11 15H13" stroke="#363853" stroke-width="1.5" stroke-linecap="round"/>
<path d="M7 15H9" stroke="#363853" stroke-width="1.5" stroke-linecap="round"/>
<path d="M15 15H17" stroke="#363853" stroke-width="1.5" stroke-linecap="round"/>
<path d="M7 18H9" stroke="#363853" stroke-width="1.5" stroke-linecap="round"/>
<path d="M11 18H13" stroke="#363853" stroke-width="1.5" stroke-linecap="round"/>
<path d="M15 18H17" stroke="#363853" stroke-width="1.5" stroke-linecap="round"/>
</svg>
