<svg width="24" height="24" viewBox="0 0 24 24" fill="none" xmlns="http://www.w3.org/2000/svg">
<path d="M8.87918 14.1209V11M15.1208 14.1209V7M12 14.1209V9M3.36997 14.1209C2.89946 12.115 2.89946 10.0275 3.36997 8.02172C4.02146 5.24429 6.1901 3.07566 8.96752 2.42417C10.9733 1.95366 13.0608 1.95366 15.0667 2.42417C17.8441 3.07566 20.0127 5.2443 20.6642 8.02173C21.1347 10.0275 21.1347 12.115 20.6642 14.1209C20.0127 16.8983 17.8441 19.0669 15.0667 19.7184C13.0608 20.1889 10.9733 20.1889 8.96752 19.7184C6.1901 19.0669 4.02146 16.8983 3.36997 14.1209Z" stroke="white" stroke-width="1.5" stroke-linecap="round"/>
</svg>
