<svg width="24" height="24" viewBox="0 0 24 24" fill="none" xmlns="http://www.w3.org/2000/svg">
<path d="M3.35288 8.95043C4.00437 6.17301 6.17301 4.00437 8.95043 3.35288C10.9563 2.88237 13.0437 2.88237 15.0496 3.35288C17.827 4.00437 19.9956 6.17301 20.6471 8.95044C21.1176 10.9563 21.1176 13.0437 20.6471 15.0496C19.9956 17.827 17.827 19.9956 15.0496 20.6471C13.0437 21.1176 10.9563 21.1176 8.95044 20.6471C6.17301 19.9956 4.00437 17.827 3.35288 15.0496C2.88237 13.0437 2.88237 10.9563 3.35288 8.95043Z" stroke="#363853" stroke-width="1.5"/>
<path d="M6 16C8.03176 14.8396 9.51555 14.2064 10.5 11C11.4677 7.84813 11.5654 7.43172 12 5" stroke="#363853" stroke-width="1.5" stroke-linecap="round"/>
<path d="M18 16C15.9682 14.8396 14.4845 14.2064 13.5 11C12.5323 7.84813 12.4346 7.43172 12 5" stroke="#363853" stroke-width="1.5" stroke-linecap="round"/>
</svg>
